PathFileType	4	(X/Y/Z)	/Users/mathieubourgeois/Desktop/Analyse/Traitement/Sujet_01/Data/Transformed_Sujet_01_velo_100.trc
DataRate	CameraRate	NumFrames	NumMarkers	Units	OrigDataRate	OrigDataStartFrame	OrigNumFrames
120.000000	120.000000	4	35	mm	120.000000	248	1988
Frame#	Time	RFHD			LFHD			RBHD			LBHD			RSHO			LSHO			CLAV			STRN			T10			RBWT			LBWT			RFWT			LFWT			RRAD			RWRA			RWRB			RCAR			RHUM			LHUM			LRAD			LWRA			LWRB			LCAR			RKNI			RKNE			LKNI			LKNE			RANE			RANI			RTOE			RHEE			LTOE			LANI			LANE			LHEE			
		X1	Y1	Z1	X2	Y2	Z2	X3	Y3	Z3	X4	Y4	Z4	X5	Y5	Z5	X6	Y6	Z6	X7	Y7	Z7	X8	Y8	Z8	X9	Y9	Z9	X10	Y10	Z10	X11	Y11	Z11	X12	Y12	Z12	X13	Y13	Z13	X14	Y14	Z14	X15	Y15	Z15	X16	Y16	Z16	X17	Y17	Z17	X18	Y18	Z18	X19	Y19	Z19	X20	Y20	Z20	X21	Y21	Z21	X22	Y22	Z22	X23	Y23	Z23	X24	Y24	Z24	X25	Y25	Z25	X26	Y26	Z26	X27	Y27	Z27	X28	Y28	Z28	X29	Y29	Z29	X30	Y30	Z30	X31	Y31	Z31	X32	Y32	Z32	X33	Y33	Z33	X34	Y34	Z34	X35	Y35	Z35	

249	2.066666666666666	163.0194244384765	1495.532348632812	305.8325195312499	157.6244964599609	1497.647216796875	180.7692871093749	27.21980857849117	1562.294311523438	319.3515319824218	15.48007869720457	1566.569580078125	188.4832611083984	-12.1357688903809	1386.808471679688	348.3857421874999	-17.70729827880861	1377.496826171875	127.8316650390624	4.025895118713349	1331.261474609375	248.2593536376952	-48.15234375000003	1223.998291015625	252.7528991699218	-223.6639404296875	1378.862670898438	261.4150390624999	-427.8146667480469	1110.545776367188	329.5152282714843	-430.5188903808594	1103.601440429688	209.5869750976561	-254.1983184814454	1075.819580078125	382.306671142578	-251.4734344482422	1076.767211914062	156.3260498046874	136.5503997802734	1171.800415039062	484.3052062988281	313.9750976562499	1045.046875	406.2615051269531	336.8665466308593	1057.874877929688	466.0921936035156	417.8482666015624	1025.536865234375	398.8590393066406	93.30213165283197	1132.366821289062	451.2299499511718	92.42125701904295	1125.552734375	75.86103820800776	142.0735015869141	1156.192993164062	45.16318893432612	320.0938110351562	1043.729370117188	146.2959747314453	340.4328918457031	1051.426879882812	82.18434906005857	406.9989624023438	1044.255859375	151.9130096435547	-38.17562484741215	734.0643310546875	342.2723083496093	-45.95159149169928	771.0061645507812	457.6992492675781	-37.60007095336916	762.3087768554688	201.1776428222656	-61.96178054809571	760.637939453125	73.8224258422851	-66.67638397216803	421.4299926757812	443.9688415527344	-51.13165283203129	431.5032653808594	364.2175598144531	118.4405212402343	379.0509033203125	397.5173034667969	-126.8393859863282	370.8990478515625	409.2879333496094	-165.7603454589844	362.9119567871094	134.4664611816406	-277.7048950195312	508.6246337890625	169.6383972167968	-294.8638916015625	507.4877319335938	93.07975769042962	-376.4530334472656	502.5240478515625	134.1275024414062	
250	2.075	162.9989318847656	1495.768676757812	304.7846374511718	157.8329467773437	1497.878540039062	179.7936401367187	26.8958644866943	1562.373657226562	317.9264221191405	15.50022697448728	1566.478271484375	187.0399322509765	-11.6499347686768	1386.737670898438	346.9773254394531	-17.7751808166504	1377.1162109375	126.5795593261718	3.823394298553437	1331.345947265625	247.3559570312499	-48.36322021484378	1224.050537109375	251.759796142578	-223.5209045410157	1378.629516601562	260.7906799316406	-426.8690795898438	1109.662963867188	330.5272827148436	-430.46435546875	1103.311157226562	210.5158386230468	-252.8070373535157	1074.0830078125	382.3334045410155	-251.8416900634766	1076.89306640625	156.2002563476562	136.776382446289	1172.008056640625	484.2040100097656	314.0126342773437	1044.766967773438	406.6664428710938	336.8690490722656	1057.648315429688	466.4784851074219	417.8519897460937	1025.501342773438	399.2872009277344	93.42799377441401	1132.417602539062	451.4953918457031	92.27591705322264	1124.991455078125	75.43785858154291	141.9357604980469	1155.503051757812	44.73353195190424	320.0319519042969	1043.736938476562	146.5547485351562	340.4524536132812	1051.333984375	82.42662048339841	406.9645690917969	1044.421508789062	152.2649993896484	-44.60799407958989	717.412841796875	341.7759094238281	-54.23065567016607	753.7545776367188	456.3131408691406	-29.58406066894534	774.7412719726562	200.5663299560546	-54.25155258178712	773.4592895507812	72.9244003295898	-68.23937988281256	405.3029174804688	443.1369934082031	-52.0305442810059	415.4155578613281	364.1296081542969	117.1527862548828	361.136474609375	397.5790100097656	-128.1548461914063	356.123779296875	408.857421875	-164.1615905761719	379.1932373046875	135.753921508789	-274.0971374511719	526.2529296875	170.3394927978515	-291.8074035644531	524.765869140625	93.16645050048821	-373.8405151367188	520.0968627929688	134.583526611328	
251	2.083333333333333	162.9656677246093	1496.270263671875	303.8297119140624	158.1489715576172	1498.192016601562	178.8119049072265	26.7136192321777	1562.570068359375	316.4087524414061	15.6345748901367	1566.468872070312	185.5768737792968	-11.08128261566166	1386.742919921875	345.5627746582031	-17.7324562072754	1376.835327148438	125.2898941040038	4.138357162475556	1331.44873046875	246.3599090576171	-48.30820083618167	1224.043823242188	250.760513305664	-223.2042541503907	1378.541259765625	260.1330871582031	-425.7482604980469	1109.067749023438	331.6817321777343	-430.264892578125	1103.218505859375	211.6201934814452	-251.2738037109376	1072.920043945312	382.1208496093749	-252.1741638183594	1077.101318359375	155.9996643066405	137.0254821777343	1172.2080078125	484.0124511718749	314.0939025878906	1044.481201171875	407.1026916503906	336.8792724609374	1057.425903320312	466.8679809570312	417.9041748046874	1025.474731445312	399.787841796875	93.62177276611322	1132.492065429688	451.6085815429687	92.2039108276367	1124.533447265625	75.25160217285151	141.8612823486328	1154.877075195312	44.35466766357416	320.0054931640625	1043.7060546875	146.7894439697265	340.5352783203125	1051.208129882812	82.70262145996091	406.9713745117188	1044.52197265625	152.6531372070312	-53.46807861328129	701.588623046875	341.2364196777343	-63.85785293579107	737.56689453125	455.3576354980468	-21.86368560791018	787.6505737304688	199.8837738037109	-46.81806182861329	786.6519165039062	71.90556335449214	-71.22888183593756	389.820556640625	442.9724731445312	-54.2431907653809	400.0686950683594	363.9873046875	114.3604583740234	343.3799133300781	397.6168212890625	-131.0262145996094	342.2463684082031	408.3396911621094	-160.6600494384766	396.4119567871094	137.0440063476562	-269.6184692382812	543.6297607421875	170.9047851562499	-287.9099731445312	541.5109252929688	93.28836059570307	-370.3279724121094	536.7039794921875	135.0586547851562	
252	2.091666666666667	163.0302124023437	1496.796875	302.8456726074218	158.5942993164062	1498.559448242188	177.8361663818359	26.60127830505367	1562.831420898438	314.9719238281249	15.92471599578855	1566.5517578125	184.0669860839843	-10.39995765686039	1386.858154296875	344.1390686035156	-17.48746871948244	1376.638061523438	123.9484863281249	4.65007734298703	1331.472534179688	245.0987548828124	-47.95565032958987	1224.1572265625	249.6558532714843	-222.762680053711	1378.588989257812	259.4645690917968	-424.3685607910157	1108.752807617188	332.9409179687499	-429.8962097167969	1103.296752929688	212.9642028808593	-249.5343475341797	1072.037231445312	381.9154968261718	-252.382064819336	1077.409790039062	155.8091735839843	137.3361053466796	1172.466064453125	483.7690734863281	314.2394409179687	1044.171752929688	407.480712890625	336.9510192871093	1057.240112304688	467.3174438476562	418.0346984863281	1025.3720703125	400.3025817871094	93.92678070068354	1132.643676757812	451.5099487304687	92.20822143554686	1124.15869140625	75.26185607910151	141.8205108642578	1154.2099609375	44.09293746948237	320.0444030761719	1043.699096679688	147.0804290771484	340.693603515625	1051.08837890625	82.9946365356445	407.0352478027344	1044.597412109375	153.106201171875	-63.32413864135746	687.0662231445312	340.4418640136718	-74.12281036376959	722.7518920898438	454.4299926757812	-14.36820697784426	800.9642333984375	199.0258331298828	-39.58599472045899	800.14306640625	70.95494079589839	-75.59670257568365	375.3023376464844	442.5702209472656	-55.36729431152348	385.75341796875	364.1880187988281	110.0354232788086	326.0341796875	397.621337890625	-135.2885131835938	329.5233459472656	407.718994140625	-153.6778106689453	414.9253845214844	136.282730102539	-264.363525390625	560.4209594726562	171.4653015136718	-283.2800598144531	557.4713745117188	93.46380615234369	-366.0935974121094	552.004638671875	135.6036071777343	
